<svg width="225" height="51" viewBox="0 0 225 51" fill="none" xmlns="http://www.w3.org/2000/svg">
<path d="M8.16618 50.7458C6.79984 50.7458 5.49962 50.3932 4.26551 49.688C3.0314 48.9387 2.0397 47.7927 1.29042 46.2501C0.54114 44.7075 0.166499 42.7241 0.166499 40.2999C0.166499 37.3028 0.739479 34.482 1.88544 31.8375C3.0314 29.1929 4.52996 26.8569 6.38113 24.8295C8.23229 22.802 10.2598 21.2153 12.4635 20.0693C14.7114 18.8793 16.9151 18.2843 19.0748 18.2843C19.9123 18.2843 20.8599 18.4165 21.9177 18.681C22.9755 18.9013 24.0774 19.298 25.2234 19.871C26.1489 19.7388 27.0966 19.6065 28.0662 19.4743C29.08 19.3421 30.1157 19.1878 31.1735 19.0115L31.3719 19.276C30.843 21.1271 30.3802 22.8902 29.9835 24.565C29.5868 26.1958 29.1901 27.8707 28.7935 29.5896L25.7523 42.68C25.7082 42.9885 25.62 43.3852 25.4878 43.87C25.3556 44.3549 25.2895 44.8177 25.2895 45.2584C25.2895 45.6551 25.3776 45.9857 25.5539 46.2501C25.7302 46.5146 26.0387 46.6468 26.4795 46.6468C27.2288 46.6468 28.1764 46.2501 29.3224 45.4568C30.4683 44.6634 31.5041 43.6937 32.4297 42.5478C33.0027 42.9445 33.5095 43.3852 33.9503 43.87C32.4517 45.8534 30.843 47.5063 29.124 48.8285C27.4051 50.1508 25.4658 50.8119 23.3061 50.8119C21.6753 50.8119 20.5073 50.4152 19.8021 49.6219C19.0969 48.7844 18.7443 47.7487 18.7443 46.5146C18.7443 45.3245 18.9867 43.9582 19.4715 42.4156H19.141C17.5102 45.2364 15.7471 47.33 13.8519 48.6963C12.0007 50.0626 10.1055 50.7458 8.16618 50.7458ZM23.5044 24.0361C22.5788 23.1987 21.6092 22.5376 20.5954 22.0527C19.5817 21.5238 18.5459 21.2594 17.4881 21.2594C15.8573 21.2594 14.4028 21.8544 13.1247 23.0444C11.8465 24.2345 10.7666 25.7771 9.88512 27.6723C9.00361 29.5235 8.34248 31.5289 7.90173 33.6886C7.46097 35.8042 7.2406 37.8317 7.2406 39.771C7.2406 42.4156 7.5932 44.2226 8.29841 45.1923C9.00361 46.1179 9.84105 46.5807 10.8107 46.5807C11.9567 46.5807 13.2128 46.0297 14.5792 44.9278C15.9896 43.7819 17.3559 41.9748 18.6782 39.5066C20.0445 36.9943 21.2125 33.6886 22.1822 29.5896L23.5044 24.0361ZM67.8647 50.2169C67.0714 50.2169 66.0356 50.1949 64.7574 50.1508C63.5233 50.1067 62.2451 50.0626 60.9229 50.0186C59.6006 49.9745 58.3885 49.9524 57.2866 49.9524C56.4933 49.9524 55.4575 49.9745 54.1793 50.0186C52.9011 50.0186 51.623 50.0186 50.3448 50.0186C49.1107 50.0626 48.119 50.0847 47.3697 50.0847C47.3697 49.7761 47.3917 49.4235 47.4358 49.0269C47.4799 48.6302 47.568 48.2776 47.7002 47.969C49.5955 47.7487 50.9618 47.5503 51.7993 47.374C52.6808 47.1977 53.2978 46.8011 53.6504 46.184C54.003 45.5229 54.3116 44.443 54.576 42.9445L60.6584 11.6069C60.8347 10.7694 60.9669 10.0863 61.0551 9.55735C61.1432 9.02845 61.1873 8.56566 61.1873 8.16898C61.1873 7.15524 60.7906 6.56023 59.9973 6.38392C59.248 6.16355 57.7274 5.96521 55.4355 5.78891C55.5236 5.0837 55.6559 4.37849 55.8322 3.67329C56.6696 3.67329 57.6833 3.69532 58.8734 3.7394C60.0634 3.7394 61.2534 3.76144 62.4435 3.80551C63.6335 3.80551 64.6252 3.80551 65.4186 3.80551C65.9915 3.80551 66.829 3.80551 67.9309 3.80551C69.0768 3.76144 70.1787 3.7394 71.2365 3.7394C72.2943 3.7394 73.0436 3.7394 73.4843 3.7394C75.2914 3.7394 77.0545 3.89366 78.7734 4.20219C80.5364 4.51072 82.1011 5.03962 83.4674 5.78891C84.8778 6.49411 86.0018 7.50784 86.8392 8.83011C87.6766 10.1083 88.0953 11.7611 88.0953 13.7886C88.0953 16.3009 87.4783 18.3724 86.2442 20.0032C85.0101 21.5899 83.4454 22.8461 81.5501 23.7717C79.6549 24.6532 77.6935 25.3363 75.6661 25.8212V25.9534C77.4291 26.1738 79.126 26.6806 80.7568 27.474C82.4317 28.2674 83.798 29.4353 84.8558 30.978C85.9577 32.5206 86.5086 34.5481 86.5086 37.0604C86.5086 39.6168 85.9356 41.7544 84.7897 43.4734C83.6437 45.1482 82.1452 46.4925 80.294 47.5063C78.4428 48.4759 76.4154 49.1811 74.2116 49.6219C72.0519 50.0186 69.9363 50.2169 67.8647 50.2169ZM64.8235 27.6723L61.1212 46.9112C62.1349 47.1316 63.2809 47.3079 64.5591 47.4401C65.8373 47.5283 66.8951 47.5724 67.7325 47.5724C71.2145 47.5724 73.9031 46.6027 75.7983 44.6634C77.7376 42.68 78.7073 40.0134 78.7073 36.6637C78.7073 34.3277 78.2445 32.4986 77.3189 31.1763C76.4374 29.8541 75.1813 28.9285 73.5505 28.3996C71.9637 27.8266 70.1126 27.5401 67.997 27.5401C67.6884 27.5401 67.2256 27.5401 66.6086 27.5401C65.9915 27.5401 65.3965 27.5842 64.8235 27.6723ZM68.9225 6.51615L65.3524 24.8295C65.9695 24.8735 66.6086 24.8956 67.2697 24.8956C67.9309 24.8956 68.4377 24.8956 68.7903 24.8956C72.6249 24.8956 75.5559 23.9259 77.5834 21.9866C79.6108 20.0473 80.6246 17.4909 80.6246 14.3175C80.6246 11.3204 79.8092 9.27086 78.1784 8.16898C76.5476 7.02302 74.5422 6.45004 72.1621 6.45004C71.8536 6.45004 71.4128 6.45004 70.8398 6.45004C70.2668 6.45004 69.6278 6.47207 68.9225 6.51615ZM122.262 31.2424C122.262 33.4903 121.887 35.7602 121.138 38.0521C120.433 40.344 119.353 42.4596 117.898 44.3989C116.444 46.2942 114.637 47.8368 112.477 49.0269C110.317 50.2169 107.827 50.8119 105.006 50.8119C102.626 50.8119 100.621 50.3932 98.9901 49.5558C97.4033 48.7183 96.1252 47.6385 95.1555 46.3162C94.1858 44.994 93.4806 43.5615 93.0399 42.0189C92.6432 40.4322 92.4449 38.9116 92.4449 37.4571C92.4449 35.5618 92.7754 33.5123 93.4366 31.3086C94.1418 29.1048 95.1996 27.0112 96.61 25.0278C98.0204 23.0444 99.8275 21.4357 102.031 20.2016C104.235 18.9234 106.858 18.2843 109.899 18.2843C112.764 18.2843 115.1 18.8793 116.907 20.0693C118.758 21.2153 120.102 22.78 120.94 24.7634C121.821 26.7027 122.262 28.8624 122.262 31.2424ZM115.254 30.1846C115.254 27.452 114.813 25.2041 113.932 23.4411C113.094 21.634 111.662 20.7305 109.634 20.7305C108.048 20.7305 106.615 21.2594 105.337 22.3172C104.103 23.375 103.045 24.7854 102.163 26.5484C101.282 28.3114 100.599 30.2507 100.114 32.3664C99.6732 34.4379 99.4528 36.5315 99.4528 38.6471C99.4528 41.3798 99.8936 43.6937 100.775 45.589C101.701 47.4401 103.199 48.3657 105.271 48.3657C106.902 48.3657 108.334 47.8148 109.568 46.7129C110.802 45.611 111.838 44.1565 112.675 42.3494C113.513 40.5423 114.152 38.581 114.593 36.4654C115.033 34.3057 115.254 32.2121 115.254 30.1846ZM134.582 50.7458C133.215 50.7458 131.915 50.3932 130.681 49.688C129.447 48.9387 128.455 47.7927 127.706 46.2501C126.957 44.7075 126.582 42.7241 126.582 40.2999C126.582 37.3028 127.155 34.482 128.301 31.8375C129.447 29.1929 130.945 26.8569 132.797 24.8295C134.648 22.802 136.675 21.2153 138.879 20.0693C141.127 18.8793 143.331 18.2843 145.49 18.2843C146.328 18.2843 147.275 18.4165 148.333 18.681C149.391 18.9013 150.493 19.298 151.639 19.871C152.564 19.7388 153.512 19.6065 154.482 19.4743C155.495 19.3421 156.531 19.1878 157.589 19.0115L157.787 19.276C157.258 21.1271 156.796 22.8902 156.399 24.565C156.002 26.1958 155.606 27.8707 155.209 29.5896L152.168 42.68C152.124 42.9885 152.035 43.3852 151.903 43.87C151.771 44.3549 151.705 44.8177 151.705 45.2584C151.705 45.6551 151.793 45.9857 151.969 46.2501C152.146 46.5146 152.454 46.6468 152.895 46.6468C153.644 46.6468 154.592 46.2501 155.738 45.4568C156.884 44.6634 157.92 43.6937 158.845 42.5478C159.418 42.9445 159.925 43.3852 160.366 43.87C158.867 45.8534 157.258 47.5063 155.539 48.8285C153.821 50.1508 151.881 50.8119 149.722 50.8119C148.091 50.8119 146.923 50.4152 146.218 49.6219C145.512 48.7844 145.16 47.7487 145.16 46.5146C145.16 45.3245 145.402 43.9582 145.887 42.4156H145.556C143.926 45.2364 142.163 47.33 140.267 48.6963C138.416 50.0626 136.521 50.7458 134.582 50.7458ZM149.92 24.0361C148.994 23.1987 148.025 22.5376 147.011 22.0527C145.997 21.5238 144.961 21.2594 143.904 21.2594C142.273 21.2594 140.818 21.8544 139.54 23.0444C138.262 24.2345 137.182 25.7771 136.301 27.6723C135.419 29.5235 134.758 31.5289 134.317 33.6886C133.876 35.8042 133.656 37.8317 133.656 39.771C133.656 42.4156 134.009 44.2226 134.714 45.1923C135.419 46.1179 136.256 46.5807 137.226 46.5807C138.372 46.5807 139.628 46.0297 140.995 44.9278C142.405 43.7819 143.771 41.9748 145.094 39.5066C146.46 36.9943 147.628 33.6886 148.598 29.5896L149.92 24.0361ZM170.863 50.0186H164.252L169.673 26.5484C169.982 25.2702 170.136 24.4328 170.136 24.0361C170.136 22.9783 169.739 22.4494 168.946 22.4494C168.329 22.4494 167.513 22.802 166.5 23.5072C165.53 24.1683 164.56 25.0058 163.591 26.0195C163.282 25.7991 162.996 25.5788 162.731 25.3584C162.511 25.138 162.291 24.8956 162.07 24.6311C163.833 22.5596 165.662 21.017 167.558 20.0032C169.453 18.9454 171.216 18.4165 172.847 18.4165C174.301 18.4165 175.271 18.7691 175.756 19.4743C176.24 20.1354 176.483 20.9288 176.483 21.8544C176.483 22.4274 176.395 23.1105 176.218 23.9039C176.042 24.6532 175.689 25.9314 175.161 27.7384L173.045 34.5481L173.442 34.6142C175.734 29.1048 177.981 25.0058 180.185 22.3172C182.389 19.6286 184.769 18.2843 187.325 18.2843C188.868 18.2843 189.948 18.681 190.565 19.4743C191.226 20.2677 191.557 21.1271 191.557 22.0527C191.557 23.1546 191.204 24.0141 190.499 24.6311C189.794 25.2482 188.956 25.5567 187.987 25.5567C187.281 25.5567 186.532 25.3804 185.739 25.0278C184.945 24.6311 184.284 24.0141 183.755 23.1766C182.389 24.0582 180.912 25.6669 179.326 28.0029C177.739 30.2948 176.196 33.2919 174.698 36.9943C173.243 40.6525 171.965 44.994 170.863 50.0186ZM209.696 42.2833H209.365C207.294 45.5008 205.222 47.7266 203.151 48.9607C201.079 50.1508 199.184 50.7458 197.465 50.7458C195.349 50.7458 193.476 49.9084 191.845 48.2335C190.259 46.5586 189.465 43.9141 189.465 40.2999C189.465 37.435 189.994 34.6803 191.052 32.0358C192.154 29.3913 193.608 27.0332 195.415 24.9617C197.267 22.8902 199.316 21.2594 201.564 20.0693C203.812 18.8793 206.082 18.2843 208.374 18.2843C209.255 18.2843 210.159 18.3945 211.084 18.6148C212.054 18.7911 213.002 19.0997 213.927 19.5404L216.043 9.22678C216.175 8.60973 216.285 8.03675 216.373 7.50785C216.461 6.97894 216.506 6.56022 216.506 6.25169C216.506 5.41426 216.109 4.9074 215.315 4.73109C214.566 4.51072 213.134 4.37849 211.018 4.33442C210.974 4.02589 210.93 3.7394 210.886 3.47495C210.886 3.16642 210.908 2.85789 210.952 2.54936C213.332 2.37306 215.646 2.13065 217.894 1.82212C220.186 1.46952 222.147 0.96265 223.778 0.30152L224.637 0.764309C224.197 2.3951 223.734 4.18015 223.249 6.11947C222.808 8.05879 222.346 10.2405 221.861 12.6647L215.712 42.68C215.668 42.9885 215.58 43.4072 215.448 43.9362C215.36 44.421 215.315 44.8617 215.315 45.2584C215.315 46.2281 215.712 46.7129 216.506 46.7129C217.255 46.7129 218.202 46.3162 219.348 45.5229C220.494 44.7295 221.53 43.7599 222.456 42.6139C223.029 43.0106 223.536 43.4513 223.976 43.9362C222.478 45.9195 220.847 47.5724 219.084 48.8946C217.365 50.2169 215.448 50.878 213.332 50.878C211.745 50.878 210.621 50.5034 209.96 49.7541C209.299 48.9607 208.969 47.925 208.969 46.6468C208.969 46.0297 209.035 45.3906 209.167 44.7295C209.299 44.0684 209.476 43.253 209.696 42.2833ZM211.018 33.5564L212.935 24.1022C211.657 23.0003 210.467 22.2511 209.365 21.8544C208.308 21.4577 207.404 21.2594 206.655 21.2594C205.024 21.2594 203.569 21.8544 202.291 23.0444C201.013 24.2345 199.955 25.7771 199.118 27.6723C198.28 29.5235 197.641 31.5289 197.201 33.6886C196.76 35.8483 196.539 37.8978 196.539 39.8371C196.539 42.3494 196.87 44.1125 197.531 45.1262C198.236 46.0958 199.162 46.5807 200.308 46.5807C201.762 46.5807 203.217 45.9636 204.671 44.7295C206.126 43.4954 207.426 41.8866 208.572 39.9033C209.718 37.9199 210.533 35.8042 211.018 33.5564Z" fill="white"/>
</svg>
