<svg width="225" height="51" viewBox="0 0 225 51" fill="none" xmlns="http://www.w3.org/2000/svg">
<path d="M8.26774 50.6257C6.90141 50.6257 5.60118 50.2731 4.36707 49.5679C3.13296 48.8186 2.14127 47.6726 1.39198 46.13C0.642702 44.5874 0.268061 42.604 0.268061 40.1798C0.268061 37.1827 0.841041 34.3619 1.987 31.7173C3.13296 29.0728 4.63152 26.7368 6.48269 24.7094C8.33386 22.6819 10.3613 21.0952 12.5651 19.9492C14.8129 18.7592 17.0167 18.1642 19.1764 18.1642C20.0138 18.1642 20.9615 18.2964 22.0193 18.5608C23.0771 18.7812 24.179 19.1779 25.3249 19.7509C26.2505 19.6186 27.1981 19.4864 28.1678 19.3542C29.1815 19.222 30.2173 19.0677 31.2751 18.8914L31.4734 19.1559C30.9445 21.007 30.4817 22.77 30.0851 24.4449C29.6884 26.0757 29.2917 27.7506 28.895 29.4695L25.8538 42.5599C25.8097 42.8684 25.7216 43.2651 25.5894 43.7499C25.4571 44.2348 25.391 44.6975 25.391 45.1383C25.391 45.535 25.4792 45.8655 25.6555 46.13C25.8318 46.3944 26.1403 46.5267 26.5811 46.5267C27.3303 46.5267 28.278 46.13 29.4239 45.3366C30.5699 44.5433 31.6057 43.5736 32.5312 42.4277C33.1042 42.8243 33.6111 43.2651 34.0518 43.7499C32.5533 45.7333 30.9445 47.3861 29.2256 48.7084C27.5067 50.0307 25.5673 50.6918 23.4076 50.6918C21.7769 50.6918 20.6089 50.2951 19.9036 49.5018C19.1984 48.6643 18.8458 47.6286 18.8458 46.3944C18.8458 45.2044 19.0883 43.8381 19.5731 42.2954H19.2425C17.6117 45.1163 15.8487 47.2098 13.9535 48.5762C12.1023 49.9425 10.2071 50.6257 8.26774 50.6257ZM23.606 23.916C22.6804 23.0786 21.7107 22.4174 20.697 21.9326C19.6833 21.4037 18.6475 21.1392 17.5897 21.1392C15.9589 21.1392 14.5044 21.7343 13.2262 22.9243C11.948 24.1143 10.8682 25.657 9.98668 27.5522C9.10518 29.4034 8.44405 31.4088 8.00329 33.5685C7.56254 35.6841 7.34216 37.7116 7.34216 39.6509C7.34216 42.2954 7.69476 44.1025 8.39997 45.0722C9.10518 45.9978 9.94261 46.4606 10.9123 46.4606C12.0582 46.4606 13.3144 45.9096 14.6807 44.8077C16.0911 43.6618 17.4575 41.8547 18.7797 39.3865C20.1461 36.8742 21.3141 33.5685 22.2837 29.4695L23.606 23.916ZM67.9663 50.0968C67.1729 50.0968 66.1372 50.0747 64.859 50.0307C63.6249 49.9866 62.3467 49.9425 61.0244 49.8984C59.7022 49.8544 58.4901 49.8323 57.3882 49.8323C56.5949 49.8323 55.5591 49.8544 54.2809 49.8984C53.0027 49.8984 51.7245 49.8984 50.4463 49.8984C49.2122 49.9425 48.2205 49.9646 47.4712 49.9646C47.4712 49.656 47.4933 49.3034 47.5374 48.9067C47.5814 48.5101 47.6696 48.1575 47.8018 47.8489C49.6971 47.6286 51.0634 47.4302 51.9008 47.2539C52.7823 47.0776 53.3994 46.6809 53.752 46.0639C54.1046 45.4027 54.4131 44.3229 54.6776 42.8243L60.76 11.4867C60.9363 10.6493 61.0685 9.96614 61.1567 9.43723C61.2448 8.90833 61.2889 8.44554 61.2889 8.04886C61.2889 7.03513 60.8922 6.44011 60.0988 6.26381C59.3496 6.04343 57.829 5.84509 55.537 5.66879C55.6252 4.96358 55.7574 4.25837 55.9337 3.55317C56.7712 3.55317 57.7849 3.57521 58.9749 3.61928C60.165 3.61928 61.355 3.64132 62.545 3.68539C63.7351 3.68539 64.7268 3.68539 65.5201 3.68539C66.0931 3.68539 66.9305 3.68539 68.0324 3.68539C69.1784 3.64132 70.2803 3.61928 71.3381 3.61928C72.3959 3.61928 73.1452 3.61928 73.5859 3.61928C75.393 3.61928 77.156 3.77355 78.875 4.08208C80.638 4.3906 82.2026 4.91951 83.569 5.66879C84.9794 6.37399 86.1033 7.38773 86.9408 8.70999C87.7782 9.98818 88.1969 11.641 88.1969 13.6685C88.1969 16.1808 87.5798 18.2523 86.3457 19.8831C85.1116 21.4698 83.5469 22.726 81.6517 23.6515C79.7565 24.5331 77.7951 25.2162 75.7676 25.7011V25.8333C77.5307 26.0537 79.2276 26.5605 80.8584 27.3539C82.5332 28.1472 83.8996 29.3152 84.9574 30.8579C86.0592 32.4005 86.6102 34.428 86.6102 36.9403C86.6102 39.4966 86.0372 41.6343 84.8912 43.3532C83.7453 45.0281 82.2467 46.3724 80.3956 47.3861C78.5444 48.3558 76.5169 49.061 74.3132 49.5018C72.1535 49.8984 70.0378 50.0968 67.9663 50.0968ZM64.9251 27.5522L61.2228 46.7911C62.2365 47.0115 63.3825 47.1878 64.6606 47.32C65.9388 47.4082 66.9966 47.4523 67.8341 47.4523C71.316 47.4523 74.0046 46.4826 75.8999 44.5433C77.8392 42.5599 78.8088 39.8933 78.8088 36.5436C78.8088 34.2076 78.3461 32.3785 77.4205 31.0562C76.539 29.7339 75.2828 28.8084 73.652 28.2795C72.0653 27.7065 70.2141 27.42 68.0985 27.42C67.79 27.42 67.3272 27.42 66.7102 27.42C66.0931 27.42 65.4981 27.4641 64.9251 27.5522ZM69.0241 6.39603L65.454 24.7094C66.0711 24.7534 66.7102 24.7755 67.3713 24.7755C68.0324 24.7755 68.5393 24.7755 68.8919 24.7755C72.7264 24.7755 75.6575 23.8058 77.6849 21.8665C79.7124 19.9272 80.7261 17.3708 80.7261 14.1974C80.7261 11.2002 79.9107 9.15074 78.2799 8.04886C76.6492 6.9029 74.6437 6.32992 72.2636 6.32992C71.9551 6.32992 71.5144 6.32992 70.9414 6.32992C70.3684 6.32992 69.7293 6.35196 69.0241 6.39603ZM122.363 31.1223C122.363 33.3702 121.989 35.6401 121.239 37.932C120.534 40.2239 119.454 42.3395 118 44.2788C116.545 46.1741 114.738 47.7167 112.579 48.9067C110.419 50.0968 107.929 50.6918 105.108 50.6918C102.728 50.6918 100.722 50.2731 99.0916 49.4356C97.5049 48.5982 96.2267 47.5184 95.2571 46.1961C94.2874 44.8738 93.5822 43.4414 93.1414 41.8988C92.7448 40.312 92.5464 38.7914 92.5464 37.337C92.5464 35.4417 92.877 33.3922 93.5381 31.1884C94.2433 28.9847 95.3011 26.8911 96.7115 24.9077C98.122 22.9243 99.929 21.3156 102.133 20.0814C104.337 18.8033 106.959 18.1642 110 18.1642C112.865 18.1642 115.201 18.7592 117.008 19.9492C118.859 21.0952 120.204 22.6598 121.041 24.6432C121.923 26.5826 122.363 28.7423 122.363 31.1223ZM115.355 30.0645C115.355 27.3318 114.915 25.084 114.033 23.321C113.196 21.5139 111.763 20.6103 109.736 20.6103C108.149 20.6103 106.717 21.1392 105.438 22.1971C104.204 23.2549 103.147 24.6653 102.265 26.4283C101.384 28.1913 100.7 30.1306 100.216 32.2462C99.7748 34.3178 99.5544 36.4114 99.5544 38.527C99.5544 41.2597 99.9952 43.5736 100.877 45.4689C101.802 47.32 103.301 48.2456 105.372 48.2456C107.003 48.2456 108.436 47.6947 109.67 46.5928C110.904 45.4909 111.94 44.0364 112.777 42.2293C113.614 40.4222 114.254 38.4609 114.694 36.3453C115.135 34.1856 115.355 32.092 115.355 30.0645ZM134.683 50.6257C133.317 50.6257 132.017 50.2731 130.783 49.5679C129.548 48.8186 128.557 47.6726 127.807 46.13C127.058 44.5874 126.683 42.604 126.683 40.1798C126.683 37.1827 127.256 34.3619 128.402 31.7173C129.548 29.0728 131.047 26.7368 132.898 24.7094C134.749 22.6819 136.777 21.0952 138.981 19.9492C141.228 18.7592 143.432 18.1642 145.592 18.1642C146.429 18.1642 147.377 18.2964 148.435 18.5608C149.493 18.7812 150.594 19.1779 151.74 19.7509C152.666 19.6186 153.614 19.4864 154.583 19.3542C155.597 19.222 156.633 19.0677 157.691 18.8914L157.889 19.1559C157.36 21.007 156.897 22.77 156.5 24.4449C156.104 26.0757 155.707 27.7506 155.31 29.4695L152.269 42.5599C152.225 42.8684 152.137 43.2651 152.005 43.7499C151.873 44.2348 151.806 44.6975 151.806 45.1383C151.806 45.535 151.895 45.8655 152.071 46.13C152.247 46.3944 152.556 46.5267 152.997 46.5267C153.746 46.5267 154.693 46.13 155.839 45.3366C156.985 44.5433 158.021 43.5736 158.947 42.4277C159.52 42.8243 160.027 43.2651 160.467 43.7499C158.969 45.7333 157.36 47.3861 155.641 48.7084C153.922 50.0307 151.983 50.6918 149.823 50.6918C148.192 50.6918 147.024 50.2951 146.319 49.5018C145.614 48.6643 145.261 47.6286 145.261 46.3944C145.261 45.2044 145.504 43.8381 145.989 42.2954H145.658C144.027 45.1163 142.264 47.2098 140.369 48.5762C138.518 49.9425 136.622 50.6257 134.683 50.6257ZM150.021 23.916C149.096 23.0786 148.126 22.4174 147.112 21.9326C146.099 21.4037 145.063 21.1392 144.005 21.1392C142.374 21.1392 140.92 21.7343 139.642 22.9243C138.363 24.1143 137.284 25.657 136.402 27.5522C135.521 29.4034 134.859 31.4088 134.419 33.5685C133.978 35.6841 133.758 37.7116 133.758 39.6509C133.758 42.2954 134.11 44.1025 134.815 45.0722C135.521 45.9978 136.358 46.4606 137.328 46.4606C138.474 46.4606 139.73 45.9096 141.096 44.8077C142.507 43.6618 143.873 41.8547 145.195 39.3865C146.561 36.8742 147.729 33.5685 148.699 29.4695L150.021 23.916ZM170.965 49.8984H164.353L169.775 26.4283C170.083 25.1501 170.238 24.3127 170.238 23.916C170.238 22.8582 169.841 22.3293 169.048 22.3293C168.43 22.3293 167.615 22.6819 166.601 23.3871C165.632 24.0482 164.662 24.8857 163.692 25.8994C163.384 25.679 163.097 25.4586 162.833 25.2383C162.613 25.0179 162.392 24.7755 162.172 24.511C163.935 22.4395 165.764 20.8968 167.659 19.8831C169.554 18.8253 171.317 18.2964 172.948 18.2964C174.403 18.2964 175.372 18.649 175.857 19.3542C176.342 20.0153 176.584 20.8087 176.584 21.7343C176.584 22.3072 176.496 22.9904 176.32 23.7838C176.144 24.5331 175.791 25.8112 175.262 27.6183L173.147 34.428L173.543 34.4941C175.835 28.9847 178.083 24.8857 180.287 22.1971C182.491 19.5085 184.871 18.1642 187.427 18.1642C188.97 18.1642 190.049 18.5608 190.666 19.3542C191.328 20.1476 191.658 21.007 191.658 21.9326C191.658 23.0345 191.306 23.894 190.6 24.511C189.895 25.1281 189.058 25.4366 188.088 25.4366C187.383 25.4366 186.634 25.2603 185.84 24.9077C185.047 24.511 184.386 23.894 183.857 23.0565C182.491 23.938 181.014 25.5468 179.427 27.8828C177.841 30.1747 176.298 33.1718 174.799 36.8742C173.345 40.5324 172.067 44.8738 170.965 49.8984ZM209.797 42.1632H209.467C207.395 45.3807 205.324 47.6065 203.252 48.8406C201.181 50.0307 199.285 50.6257 197.567 50.6257C195.451 50.6257 193.578 49.7882 191.947 48.1134C190.36 46.4385 189.567 43.794 189.567 40.1798C189.567 37.3149 190.096 34.5602 191.154 31.9157C192.255 29.2712 193.71 26.9131 195.517 24.8416C197.368 22.77 199.418 21.1392 201.666 19.9492C203.913 18.7592 206.183 18.1642 208.475 18.1642C209.357 18.1642 210.26 18.2743 211.186 18.4947C212.155 18.671 213.103 18.9796 214.029 19.4203L216.144 9.10667C216.277 8.48961 216.387 7.91663 216.475 7.38773C216.563 6.85882 216.607 6.44011 216.607 6.13158C216.607 5.29415 216.21 4.78728 215.417 4.61098C214.668 4.3906 213.235 4.25837 211.12 4.2143C211.076 3.90577 211.032 3.61928 210.987 3.35483C210.987 3.0463 211.01 2.73777 211.054 2.42925C213.434 2.25294 215.748 2.01053 217.995 1.702C220.287 1.3494 222.249 0.842533 223.88 0.181403L224.739 0.644192C224.298 2.27498 223.835 4.06004 223.351 5.99935C222.91 7.93867 222.447 10.1204 221.962 12.5446L215.814 42.5599C215.77 42.8684 215.682 43.2871 215.549 43.816C215.461 44.3009 215.417 44.7416 215.417 45.1383C215.417 46.108 215.814 46.5928 216.607 46.5928C217.356 46.5928 218.304 46.1961 219.45 45.4027C220.596 44.6094 221.632 43.6397 222.557 42.4938C223.13 42.8905 223.637 43.3312 224.078 43.816C222.579 45.7994 220.949 47.4523 219.186 48.7745C217.467 50.0968 215.549 50.7579 213.434 50.7579C211.847 50.7579 210.723 50.3833 210.062 49.634C209.401 48.8406 209.07 47.8049 209.07 46.5267C209.07 45.9096 209.136 45.2705 209.269 44.6094C209.401 43.9483 209.577 43.1329 209.797 42.1632ZM211.12 33.4363L213.037 23.9821C211.759 22.8802 210.569 22.1309 209.467 21.7343C208.409 21.3376 207.506 21.1392 206.756 21.1392C205.125 21.1392 203.671 21.7343 202.393 22.9243C201.115 24.1143 200.057 25.657 199.219 27.5522C198.382 29.4034 197.743 31.4088 197.302 33.5685C196.861 35.7282 196.641 37.7777 196.641 39.717C196.641 42.2293 196.972 43.9923 197.633 45.0061C198.338 45.9757 199.263 46.4606 200.409 46.4606C201.864 46.4606 203.318 45.8435 204.773 44.6094C206.227 43.3753 207.528 41.7665 208.674 39.7831C209.819 37.7997 210.635 35.6841 211.12 33.4363Z" fill="black"/>
</svg>
